<?xml version="1.0" encoding="utf-8"?>
<!-- Generator: Adobe Illustrator 26.1.0, SVG Export Plug-In . SVG Version: 6.00 Build 0)  -->
<svg version="1.1" id="Warstwa_1" xmlns="http://www.w3.org/2000/svg" xmlns:xlink="http://www.w3.org/1999/xlink" x="0px" y="0px"
	 viewBox="0 0 155 37" style="enable-background:new 0 0 155 37;" xml:space="preserve">
<style type="text/css">
	.st0{fill:#4F71E0;}
	.st1{fill:#7D8FD3;}
	.st2{fill:url(#SVGID_1_);}
	.st3{fill:url(#SVGID_00000152944665910557506980000005847926669848645567_);}
	.st4{fill:url(#SVGID_00000125599380303149290050000004369712560514449815_);}
</style>
<g>
	<path class="st0" d="M4,29.9V14.6H0v-2.5h4v-1.6c0-4,2.1-6.3,6.3-6.3c1.1,0,2.1,0.2,2.8,0.6l0.4,2.6c-0.8-0.5-1.8-0.8-2.9-0.8
		c-2.5,0-3.8,1.3-3.8,4.1v1.5h6.6v2.5H6.9v15.3H4z M16.3,7.1c0-1.1,0.7-1.9,2-1.9c1.2,0,2,0.8,2,1.9c0,1.1-0.8,1.9-2,1.9
		C17.1,9,16.3,8.2,16.3,7.1z M16.9,29.9V12.2h2.9v17.7H16.9z"/>
	<path class="st0" d="M25.3,29.9V4.7l2.9-0.6v25.8H25.3z"/>
	<path class="st0" d="M51.5,21.5H35.6c0.2,3.8,2.9,6.5,7.7,6.5c3.3,0,6.1-1.4,8-3.5L50.6,28c-1.5,1.2-4.2,2.3-7.5,2.3
		c-6.7,0-10.4-4.2-10.4-9.3c0-5.2,3.7-9.3,9.7-9.3c5.7,0,9,4.1,9,9V21.5z M35.8,19.3h12.8c-0.5-2.9-2.6-5.4-6.2-5.4
		C38.6,13.9,36.3,16.3,35.8,19.3z"/>
	<path class="st1" d="M59.1,30.5V12.8H61v3.7c1.2-2.2,3.6-4.1,6.7-4.1c3.5,0,5.5,1.5,6.4,4c1.2-2.2,3.8-4,7.1-4
		c4.6,0,6.9,2.7,6.9,6.8v11.2h-1.9v-11c0-3.4-1.8-5.4-5.4-5.4c-2.4,0-4.7,1.3-6.4,3.7c0.1,0.5,0.1,1,0.1,1.5v11.2h-1.9v-11
		c0-3.4-1.8-5.4-5.3-5.4c-2.4,0-4.7,1.3-6.4,3.8v12.7H59.1z"/>
	<path class="st1" d="M139.2,30.5V12.8h1.9v3.7c1.2-2,3.6-4.1,7.2-4.1c4.3,0,6.8,2.6,6.8,6.7v11.3h-1.9v-11c0-3.4-1.8-5.4-5.4-5.4
		c-2.7,0-5,1.6-6.7,3.8v12.7H139.2z"/>
	<radialGradient id="SVGID_1_" cx="113.7752" cy="21.5192" r="16.0154" gradientUnits="userSpaceOnUse">
		<stop  offset="0" style="stop-color:#7D8FD3"/>
		<stop  offset="0.5495" style="stop-color:#4F71E0"/>
		<stop  offset="1" style="stop-color:#1A1B1F"/>
	</radialGradient>
	<path class="st2" d="M131.9,15.1c-1.7-1.7-4-2.7-6.4-2.7c-2.4,0-4.7,0.9-6.4,2.7l-0.5,0.5l-10.6,10.6c0,0,0,0,0,0l-0.6,0.6
		c-1.4,1.4-3.3,2.2-5.3,2.2c-2,0-3.9-0.8-5.3-2.2c-1.4-1.4-2.2-3.3-2.2-5.3c0-2,0.8-3.9,2.2-5.3c1.4-1.4,3.3-2.2,5.3-2.2
		c2,0,3.9,0.8,5.3,2.2l0.7,0.7l1.2,1.2l1.2-1.2l-1.9-1.9c-1.7-1.7-4-2.7-6.4-2.7c-2.4,0-4.7,0.9-6.4,2.7c-1.7,1.7-2.7,4-2.7,6.4
		c0,2.4,0.9,4.7,2.7,6.4c1.7,1.7,4,2.7,6.4,2.7c2.4,0,4.7-0.9,6.4-2.7l11.4-11.4l0.3-0.3c0.2-0.2,0.5-0.5,0.8-0.7
		c1.3-1,2.8-1.5,4.5-1.5c2,0,3.9,0.8,5.3,2.2c1.4,1.4,2.2,3.3,2.2,5.3c0,2-0.8,3.9-2.2,5.3c-2.7,2.7-6.8,2.9-9.7,0.7
		c-0.3-0.2-0.5-0.4-0.8-0.6l-0.3-0.3l-1.6-1.6l-1.2,1.2l1.4,1.4L119,28c1.8,1.7,4.1,2.6,6.4,2.6c2.3,0,4.7-0.9,6.4-2.7
		c1.7-1.7,2.7-4,2.7-6.4C134.5,19.1,133.6,16.8,131.9,15.1z"/>
	
		<linearGradient id="SVGID_00000137121654762296814990000011820355589381923235_" gradientUnits="userSpaceOnUse" x1="96.5216" y1="21.5166" x2="106.9306" y2="21.5166">
		<stop  offset="0" style="stop-color:#7D8FD3"/>
		<stop  offset="1" style="stop-color:#101333"/>
	</linearGradient>
	<path style="fill:url(#SVGID_00000137121654762296814990000011820355589381923235_);" d="M103.8,26.2c1.1,0,2.1-0.4,3-1.1l-0.4,0.4
		c-1.1,1.1-2.5,1.7-4.1,1.7c-1.5,0-3-0.6-4.1-1.7c-1.1-1.1-1.7-2.5-1.7-4.1c0-1.5,0.6-3,1.7-4.1c1.1-1.1,2.5-1.7,4.1-1.7
		c1.5,0,3,0.6,4.1,1.7l0.6,0.6c-0.9-0.8-1.9-1.2-3.1-1.2c-1.3,0-2.4,0.5-3.3,1.4c-0.9,0.9-1.4,2.1-1.4,3.3s0.5,2.4,1.4,3.3
		C101.4,25.7,102.6,26.2,103.8,26.2z"/>
	
		<linearGradient id="SVGID_00000028291260787640600200000011172373243488307883_" gradientUnits="userSpaceOnUse" x1="131.0711" y1="21.5166" x2="120.6621" y2="21.5166">
		<stop  offset="0" style="stop-color:#7D8FD3"/>
		<stop  offset="1" style="stop-color:#101333"/>
	</linearGradient>
	<path style="fill:url(#SVGID_00000028291260787640600200000011172373243488307883_);" d="M123.8,26.2c-1.1,0-2.1-0.4-3-1.1l0.4,0.4
		c1.1,1.1,2.5,1.7,4.1,1.7c1.5,0,3-0.6,4.1-1.7c1.1-1.1,1.7-2.5,1.7-4.1c0-1.5-0.6-3-1.7-4.1c-1.1-1.1-2.5-1.7-4.1-1.7
		c-1.5,0-3,0.6-4.1,1.7l-0.6,0.6c0.9-0.8,1.9-1.2,3.1-1.2c1.3,0,2.4,0.5,3.3,1.4c0.9,0.9,1.4,2.1,1.4,3.3s-0.5,2.4-1.4,3.3
		C126.2,25.7,125,26.2,123.8,26.2z"/>
</g>
</svg>
