<!-- Generator: Adobe Illustrator 22.1.0, SVG Export Plug-In  -->
<svg version="1.1"
	 xmlns="http://www.w3.org/2000/svg" xmlns:xlink="http://www.w3.org/1999/xlink" xmlns:a="http://ns.adobe.com/AdobeSVGViewerExtensions/3.0/"
	 x="0px" y="0px" width="201.7px" height="37px" viewBox="0 0 201.7 37" style="enable-background:new 0 0 201.7 37;"
	 xml:space="preserve">
<style type="text/css">
	.st0{fill:url(#SVGID_1_);}
	.st1{opacity:0.31;fill:url(#SVGID_2_);}
	.st2{fill:url(#SVGID_3_);}
	.st3{fill:url(#SVGID_4_);}
	.st4{opacity:0.31;fill:url(#SVGID_5_);}
	.st5{fill:url(#SVGID_6_);}
	.st6{fill:url(#SVGID_7_);}
	.st7{fill:url(#SVGID_8_);}
	.st8{fill-rule:evenodd;clip-rule:evenodd;fill:#0893F7;}
	.st9{fill:url(#SVGID_9_);}
	.st10{opacity:0.31;fill:url(#SVGID_10_);}
	.st11{fill:url(#SVGID_11_);}
	.st12{fill:url(#SVGID_12_);}
	.st13{opacity:0.31;fill:url(#SVGID_13_);}
	.st14{fill:url(#SVGID_14_);}
	.st15{fill:url(#SVGID_15_);}
	.st16{fill:url(#SVGID_16_);}
</style>
<defs>
</defs>
<g>
	<g>
		<linearGradient id="SVGID_1_" gradientUnits="userSpaceOnUse" x1="14.736" y1="-1.0139" x2="30.2166" y2="24.8324">
			<stop  offset="0.2024" style="stop-color:#18B8D5"/>
			<stop  offset="1" style="stop-color:#0893F7"/>
		</linearGradient>
		<path class="st0" d="M38,12.6c-0.3-0.5-0.7-0.8-1.2-1.1L16.1,0.4c-2-1.1-4.5,0.4-4.5,2.7v16c1.9-0.2,6.3-0.6,9.6,0.8
			c4.3,1.8,7.4,2,9.2,0.4c1.1-1,5.6-3.1,8.6-5C38.7,14,38.3,13.2,38,12.6z"/>
		<linearGradient id="SVGID_2_" gradientUnits="userSpaceOnUse" x1="24.4566" y1="8.5511" x2="29.0911" y2="15.412">
			<stop  offset="0.2598" style="stop-color:#DA1375"/>
			<stop  offset="1" style="stop-color:#6E093B"/>
		</linearGradient>
		<path class="st1" d="M30.4,20.2c0.3-0.3,0.9-0.7,1.7-1.1c0-0.5,0-1,0-1.4c0.7-4.2-2.3-6-5.9-5.2l-1.8,1.1c0,0,4.3,0.4,5.4,3.4
			c0.4,1,0.3,2.6,0,3.7C30.1,20.5,30.3,20.4,30.4,20.2z"/>
	</g>
	<linearGradient id="SVGID_3_" gradientUnits="userSpaceOnUse" x1="17.7504" y1="39.8991" x2="21.433" y2="30.7154">
		<stop  offset="0.2598" style="stop-color:#DA1375"/>
		<stop  offset="1" style="stop-color:#6E093B"/>
	</linearGradient>
	<path class="st2" d="M13.8,24.8c-0.7-0.3-1.5-0.5-2.2-0.6v9.4c0,2.1,2.1,3.6,4.1,2.8l18.1-6.6c0.1,0,0.3-0.1,0.4-0.2
		C27.6,31.6,20.4,27.4,13.8,24.8z"/>
	<g>
		<linearGradient id="SVGID_4_" gradientUnits="userSpaceOnUse" x1="16.58" y1="40.3072" x2="20.4672" y2="32.3283">
			<stop  offset="0.2024" style="stop-color:#18B8D5"/>
			<stop  offset="1" style="stop-color:#0893F7"/>
		</linearGradient>
		<path class="st3" d="M13.8,25.1c-0.7-0.3-1.5-0.5-2.2-0.6V34c0,2.1,2.1,3.6,4.1,2.8l18.1-6.6c0.1,0,0.3-0.1,0.4-0.2
			C27.6,31.9,20.4,27.7,13.8,25.1z"/>
		<linearGradient id="SVGID_5_" gradientUnits="userSpaceOnUse" x1="11.6388" y1="29.5223" x2="34.2181" y2="29.5223">
			<stop  offset="0.2598" style="stop-color:#DA1375"/>
			<stop  offset="1" style="stop-color:#6E093B"/>
		</linearGradient>
		<path class="st4" d="M34.2,30c-6.7,1.8-13.8-2.3-20.4-4.9c-0.5-0.2-1-0.3-1.5-0.5c-0.3,0.2-0.5,0.4-0.7,0.6v2.4
			c1.2,0.8,2.8,2.5,5.5,4.7c1.4,1.2,3.5,1.7,5.3,2l11.5-4.2C34,30.1,34.1,30.1,34.2,30z"/>
	</g>
	<g>
		<linearGradient id="SVGID_6_" gradientUnits="userSpaceOnUse" x1="0" y1="27.9993" x2="34.2181" y2="27.9993">
			<stop  offset="0" style="stop-color:#FA5163"/>
			<stop  offset="1" style="stop-color:#FA7663"/>
		</linearGradient>
		<path class="st5" d="M0,30.3c0,0,6.3-4.9,11.2-3.3c4.9,1.6,9.4,7.5,17.6,5l5.4-2c0,0-18.7-7.7-23.7-6.6C5.6,24.5,1.9,27,0,30.3z"
			/>
		<radialGradient id="SVGID_7_" cx="21.2637" cy="20.4081" r="16.636" gradientUnits="userSpaceOnUse">
			<stop  offset="0" style="stop-color:#FA7663"/>
			<stop  offset="1" style="stop-color:#FF9B39"/>
		</radialGradient>
		<path class="st6" d="M0,30.3c0,0,5.9-8.3,13.8-5.2c7.9,3.1,16.7,8.5,24.5,2.9s3.3-13.6-0.5-16S27.6,9.6,24,13.1c0,0,7.3-1.6,6.9,5
			c-0.4,6.6-8.5,3.6-11.2,2.9C17,20.3,4.6,18.4,0,30.3z"/>
	</g>
</g>
<g>
	<g>
		<g>
			<linearGradient id="SVGID_8_" gradientUnits="userSpaceOnUse" x1="50.9127" y1="18.6331" x2="143.6594" y2="18.6331">
				<stop  offset="0" style="stop-color:#FA7663"/>
				<stop  offset="1" style="stop-color:#FF9B39"/>
			</linearGradient>
			<path class="st7" d="M62.1,16.6h-4.8c-1.1,0-1.6-0.5-1.6-1.6v-0.5c0-1.1,0.5-1.6,1.6-1.6h8.3V9.2h-9.4c-1.9,0-3.2,0.4-4.1,1.3
				c-0.8,0.8-1.3,2.2-1.3,4.1v0.8c0,1.9,0.4,3.2,1.3,4.1c0.8,0.8,2.2,1.3,4.1,1.3h6.1V23c0,0.4-0.1,0.7-0.4,1
				c-0.2,0.2-0.6,0.4-1,0.4c-1.7,0-5-0.1-9.9-0.4v3.6c1.9,0.2,3.8,0.3,5.6,0.4l2.5,0.1c1,0,2,0.1,2.9,0.1c1.7,0,3-0.4,3.8-1.2
				c0.8-0.8,1.2-2.1,1.2-3.8v-1.3c0-1.7-0.4-3-1.2-3.8C65.1,17,63.9,16.6,62.1,16.6z M74.4,24.1c-0.2-0.2-0.3-0.4-0.3-0.7v-6.1h3.3
				v-3.6h-3.3v-3.2H70l-0.5,3.2h-1.6v3.6h1.6v6.8c0,1.2,0.4,2.2,1.1,2.9c0.7,0.7,1.7,1.1,2.9,1.1c1.7,0,3.3-0.1,5.1-0.3v-3.5h-3.5
				C74.8,24.4,74.6,24.3,74.4,24.1z M84.1,15.4l-0.3-1.7h-4.1v14.1h4.7v-9.5c1.2-0.5,2.3-0.8,3.5-0.8h2.3v-4.1h-1.2
				C87.3,13.4,85.7,14.1,84.1,15.4z M100.2,13.4h-5.3c-1.3,0-2.4,0.4-3.1,1.1c-0.8,0.8-1.1,1.8-1.1,3.1v6.4c0,1.2,0.4,2.2,1.1,2.9
				c0.7,0.7,1.7,1.1,2.9,1.1c2.8,0,5.9-0.2,9.3-0.5v-3.3c-3.4,0.3-6,0.4-7.7,0.4c-0.3,0-0.5-0.1-0.7-0.3c-0.2-0.2-0.3-0.4-0.3-0.7
				v-1.1h9.2v-4.9c0-1.3-0.4-2.4-1.1-3.1C102.5,13.8,101.5,13.4,100.2,13.4z M99.8,19.3h-4.5v-1.5c0-0.7,0.4-1.1,1.1-1.1h2.4
				c0.7,0,1.1,0.4,1.1,1.1V19.3z M115.6,13.4c-2.6,0-5.6,0.2-8.8,0.5v3.3c0.9-0.1,2-0.1,3.4-0.2c1.4-0.1,2.7-0.2,3.8-0.2
				c0.3,0,0.5,0.1,0.7,0.3c0.2,0.2,0.3,0.4,0.3,0.7v1.1h-5.5c-1.2,0-2.2,0.4-2.9,1.1c-0.7,0.7-1.1,1.7-1.1,2.9v1.2
				c0,1.2,0.4,2.2,1.1,2.9c0.7,0.7,1.7,1.1,2.9,1.1h0.9c0.6,0,1.3-0.1,2.2-0.4c0.9-0.3,1.7-0.7,2.6-1.2l0.3,1.3h4.1V17.4
				c0-1.2-0.4-2.2-1.1-2.9C117.8,13.8,116.8,13.4,115.6,13.4z M115,23.8c-1.2,0.4-2.3,0.5-3.2,0.5h-0.7c-0.3,0-0.5-0.1-0.7-0.3
				c-0.2-0.2-0.3-0.4-0.3-0.7v-0.3c0-0.3,0.1-0.5,0.3-0.7c0.2-0.2,0.4-0.3,0.7-0.3h3.9V23.8z M142.6,14.5c-0.7-0.7-1.7-1.1-2.9-1.1
				h-0.3c-0.7,0-1.6,0.1-2.5,0.4c-1,0.3-1.8,0.7-2.7,1.2c-0.8-1.1-1.9-1.6-3.3-1.6h-0.3c-0.6,0-1.3,0.1-2.2,0.4
				c-0.9,0.3-1.7,0.7-2.6,1.2l-0.3-1.3h-4.1v14.1h4.7v-10c1.2-0.4,2.3-0.5,3.1-0.5h0.1c0.3,0,0.5,0.1,0.7,0.3
				c0.2,0.2,0.3,0.4,0.3,0.7v9.6h4.7v-10c1.2-0.4,2.3-0.5,3.1-0.5h0.1c0.3,0,0.5,0.1,0.7,0.3c0.2,0.2,0.3,0.4,0.3,0.7v9.6h4.7V17.4
				C143.7,16.2,143.3,15.3,142.6,14.5z"/>
		</g>
	</g>
	<path class="st8" d="M197.1,27.8V18c0-0.3-0.1-0.5-0.3-0.7c-0.2-0.2-0.4-0.3-0.7-0.3h-0.9c-0.7,0-1.3,0-1.9,0.1
		c-0.6,0.1-1,0.1-1.3,0.2v10.5h-4.7V9.2h4.7V14c1.7-0.4,3.2-0.5,4.5-0.5h1.2c1.2,0,2.2,0.4,2.9,1.1c0.7,0.7,1.1,1.7,1.1,2.9v10.4
		H197.1z M182.1,28.1c-3.1,0-6.5-0.2-10.1-0.5v-3.5c3.6,0.3,6.5,0.4,8.5,0.4c0.3,0,0.5-0.1,0.7-0.3c0.2-0.2,0.3-0.4,0.3-0.7v-0.9
		h-5.7c-1.2,0-2.2-0.4-2.9-1.1c-0.7-0.7-1.1-1.7-1.1-2.9v-0.9c0-1.2,0.4-2.2,1.1-2.9c0.7-0.7,1.7-1.1,2.9-1.1h9.1v3.5h-7.5
		c-0.3,0-0.5,0.1-0.7,0.3c-0.2,0.2-0.3,0.4-0.3,0.7s0.1,0.5,0.3,0.7c0.2,0.2,0.4,0.3,0.7,0.3h4.8c1.2,0,2.2,0.4,2.9,1.1
		c0.7,0.7,1.1,1.7,1.1,2.9v1.1c0,1.2-0.4,2.2-1.1,2.9C184.3,27.7,183.3,28.1,182.1,28.1z M165.8,17.8h-2v-3.6h6.7v13.6h-4.7V17.8z
		 M165.8,8.9h4.7v3.7h-4.7V8.9z M154.1,27.8l-3.2-11.6l-3.2,11.6h-2.8v-9.6l0.7,3l3.2-12h4.3l3.2,12l2.8-12h5.2l-5.1,18.6H154.1z
		 M141.6,12.3h-3.2l-0.8-3.1h5.2l1.1,4.6L141.6,12.3z"/>
</g>
</svg>
